<?xml version="1.0" encoding="UTF-8" standalone="no"?>
<!-- Created with Inkscape (http://www.inkscape.org/) -->

<svg
   width="1024"
   height="500"
   viewBox="0 0 1024 500"
   version="1.1"
   id="svg5"
   inkscape:version="1.2.2 (b0a8486, 2022-12-01)"
   sodipodi:docname="play-store-feature-graphic.svg"
   xml:space="preserve"
   inkscape:export-filename="play-store-feature-graphic.png"
   inkscape:export-xdpi="96"
   inkscape:export-ydpi="96"
   xmlns:inkscape="http://www.inkscape.org/namespaces/inkscape"
   xmlns:sodipodi="http://sodipodi.sourceforge.net/DTD/sodipodi-0.dtd"
   xmlns="http://www.w3.org/2000/svg"
   xmlns:svg="http://www.w3.org/2000/svg"><sodipodi:namedview
     id="namedview7"
     pagecolor="#fad3d3"
     bordercolor="#666666"
     borderopacity="1.0"
     inkscape:pageshadow="2"
     inkscape:pageopacity="1"
     inkscape:pagecheckerboard="0"
     inkscape:document-units="px"
     showgrid="false"
     units="px"
     width="1000px"
     scale-x="1"
     inkscape:showpageshadow="2"
     inkscape:deskcolor="#d1d1d1"
     inkscape:zoom="1.0507607"
     inkscape:cx="308.34804"
     inkscape:cy="275.51468"
     inkscape:window-width="1920"
     inkscape:window-height="1025"
     inkscape:window-x="0"
     inkscape:window-y="0"
     inkscape:window-maximized="1"
     inkscape:current-layer="layer1" /><defs
     id="defs2"><rect
       x="447.31847"
       y="44.259754"
       width="532.64983"
       height="392.17421"
       id="rect2564" /><rect
       x="471.44766"
       y="54.388118"
       width="506.0702"
       height="391.16098"
       id="rect2558" /></defs><g
     inkscape:label="Layer 1"
     inkscape:groupmode="layer"
     id="layer1"><text
       xml:space="preserve"
       id="text2556"
       style="font-style:normal;font-weight:normal;font-size:40px;line-height:1.25;font-family:sans-serif;white-space:pre;shape-inside:url(#rect2558);display:inline;fill:#000000;fill-opacity:1;stroke:none" /><text
       xml:space="preserve"
       id="text2562"
       style="font-style:normal;font-weight:normal;font-size:40px;line-height:1.25;font-family:sans-serif;white-space:pre;shape-inside:url(#rect2564);display:inline;fill:#000000;fill-opacity:1;stroke:none"
       transform="translate(85.252249,103.06704)"><tspan
         x="447.31836"
         y="110.3223"
         id="tspan409"><tspan
           style="font-size:74.6667px;-inkscape-font-specification:'sans-serif, Normal'"
           id="tspan407">Floating
</tspan></tspan><tspan
         x="447.31836"
         y="203.65567"
         id="tspan413"><tspan
           style="font-size:74.6667px;-inkscape-font-specification:'sans-serif, Normal'"
           id="tspan411">Timer</tspan></tspan></text><g
       id="g3003"
       transform="matrix(0.41116855,0,0,0.41116855,100.29705,28.313977)"><path
         d="m 488.04463,136.89556 v -33.22067 h 26.72982 c 20.44984,0 37.02717,-16.579169 37.02717,-37.027172 0,-20.448004 -16.57916,-37.029002 -37.02717,-37.029002 H 387.26047 c -20.44984,0 -37.02717,16.579165 -37.02717,37.027168 0,20.448004 16.57917,37.027166 37.02717,37.027166 h 26.72982 v 33.22067 C 201.56539,155.69518 34.429729,334.59137 34.429729,551.8184 c 0,229.70817 186.881401,416.58957 416.589571,416.58957 229.70816,0 416.58956,-186.8814 416.58956,-416.58957 -0.002,-217.22703 -167.13932,-396.12322 -379.56423,-414.92284 z m 0,755.44848 v -36.89882 c 0,-20.44984 -16.57916,-37.02717 -37.02717,-37.02717 -20.44983,0 -37.02717,16.57917 -37.02717,37.02717 v 36.89882 C 254.63449,875.13596 127.70174,748.19955 110.49366,588.84741 h 36.89882 c 20.44984,0 37.02717,-16.57917 37.02717,-37.02717 0,-20.44801 -16.57916,-37.02717 -37.02717,-37.02717 H 110.49183 C 127.69991,355.43726 254.63632,228.50452 413.98846,211.29461 v 36.89881 c 0,20.44984 16.57917,37.02717 37.02717,37.02717 20.44984,0 37.02717,-16.57916 37.02717,-37.02717 v -36.90248 c 159.35581,17.20808 286.28855,144.14449 303.49663,303.49846 h -36.89882 c -20.44984,0 -37.02717,16.57917 -37.02717,37.02717 0,20.448 16.57917,37.02717 37.02717,37.02717 H 791.5431 C 774.33501,748.20138 647.40044,875.13779 488.04463,892.34404 Z"
         id="path2655"
         style="stroke-width:1.83357" /><path
         d="M 563.32196,387.14707 456.64653,493.82433 c -1.85374,-0.17785 -3.72949,-0.27687 -5.6309,-0.27687 -32.18287,0 -58.26911,26.08991 -58.26911,58.26911 0,32.18287 26.08807,58.26911 58.26911,58.26911 32.18103,0 58.26911,-26.08991 58.26911,-58.26911 0,-1.90141 -0.099,-3.77716 -0.27687,-5.62907 L 615.68146,439.51024 c 14.46139,-14.45772 14.46139,-37.90362 0,-52.365 -14.45222,-14.45956 -37.89811,-14.45956 -52.3595,0.002 z"
         id="path2657"
         style="stroke-width:1.83357" /></g></g></svg>
